# xmcd
#
# Track frame offsets:
# 150
# 12856
# 24463
# 39403
# 51659
# 64938
# 78704
# 90545
# 101073
# 113986
# 123745
#
# Disc length: 1819 seconds
#
#
# Revision: 0
# Processed by: cddbd v1.4PL0 Copyright (c) Steve Scherf et al.
# Submitted via: FreeRIP 2.00 
#
DISCID=9607190b
DTITLE=Freddy Powers - Silver Eagle
DYEAR=1900
DGENRE=Country
TTITLE0=Silver Eagle
TTITLE1=Beautiful Time
TTITLE2=If I Lay Down The Bottle
TTITLE3=You'll Never Know
TTITLE4=Shopping For Dresses
TTITLE5=I Love Women
TTITLE6=This Song Is For You
TTITLE7=You've Got Your Pride
TTITLE8=Women
TTITLE9=Star Spangled Country Song
TTITLE10=Big Butter And Egg Man
EXTD=
EXTT0=
EXTT1=
EXTT2=
EXTT3=
EXTT4=
EXTT5=
EXTT6=
EXTT7=
EXTT8=
EXTT9=
EXTT10=
PLAYORDER=
